<svg xmlns="http://www.w3.org/2000/svg" width="177" height="31" viewBox="0 0 177 31">
    <g fill="#FFF" fill-rule="evenodd">
        <path
            d="M109.105 13.61a10.688 10.688 0 0 0-5.605-3.79l-.082-.022h-.087c-.023 0-.058-.006-.098-.006a1.823 1.823 0 0 0-1.967 1.284v.006c-.261.94.278 1.91 1.236 2.202l.017.005c3.035.849 5.153 3.618 5.158 6.743 0 3.859-3.174 7-7.079 7a7.059 7.059 0 0 1-5.036-2.086 1.805 1.805 0 0 0-1.282-.522 1.82 1.82 0 0 0-1.277.516c-.348.332-.545.78-.545 1.261 0 .482.191.929.54 1.262 2.019 2.018 4.717 3.124 7.6 3.124 5.901 0 10.7-4.747 10.7-10.578a10.49 10.49 0 0 0-2.193-6.399zM94.674 16.22a7.142 7.142 0 0 1 4.08-2.948 1.83 1.83 0 0 0 1.09-.825c.25-.419.313-.9.186-1.36l-.006-.022c-.255-.78-.957-1.302-1.758-1.302-.14 0-.284.018-.453.063l-.011.006a10.606 10.606 0 0 0-6.15 4.444c-.268.395-.36.871-.256 1.347.099.459.377.86.777 1.13.29.189.644.292.993.292.609-.012 1.19-.321 1.508-.826zM81.311 9.23h-4.393c-.988 0-1.792.788-1.792 1.757 0 .968.804 1.757 1.792 1.757h4.393c1.608 0 2.924 1.272 2.924 2.843v8.025c0 1.565-1.31 2.844-2.918 2.844h-4.41c-1.609 0-2.924-1.273-2.924-2.844l-.005-21.86v-.018A1.788 1.788 0 0 0 72.186 0c-.988 0-1.792.788-1.792 1.757l.006 21.86c0 3.503 2.917 6.353 6.506 6.353h4.411c3.584 0 6.501-2.855 6.501-6.358v-8.025c0-3.508-2.923-6.357-6.507-6.357zM60.609 9.06a6.246 6.246 0 0 0-4.511 1.899 6.246 6.246 0 0 0-4.511-1.898c-3.466 0-6.284 2.804-6.284 6.25l.006 12.89a1.773 1.773 0 0 0 3.545 0l-.006-12.89a2.741 2.741 0 0 1 5.483-.006l.005 12.891a1.773 1.773 0 0 0 3.545 0l-.005-12.891a2.741 2.741 0 0 1 5.482-.006l.006 12.891a1.773 1.773 0 0 0 3.545 0l-.006-12.89c-.005-3.44-2.829-6.24-6.294-6.24zM34.97 9.06H30.86c-3.564 0-6.465 2.874-6.465 6.4v8.116c0 3.526 2.901 6.394 6.47 6.394h4.112c.983 0 1.782-.794 1.782-1.769 0-.975-.8-1.768-1.782-1.768h-4.112c-1.599 0-2.906-1.281-2.906-2.862v-8.117c0-1.576 1.302-2.862 2.9-2.862h4.113c1.427 0 2.587 1.15 2.587 2.562a2.577 2.577 0 0 1-2.582 2.567H30.78c-.983 0-1.782.794-1.782 1.769 0 .975.8 1.768 1.782 1.768h4.197c3.393 0 6.145-2.738 6.145-6.104 0-3.367-2.758-6.093-6.15-6.093zM20.493 9.06h-3.887v.057c-2.675.3-4.758 2.513-4.758 5.196l.006 13.89c0 .974.813 1.767 1.81 1.767.998 0 1.81-.793 1.81-1.766l-.005-13.89c0-.946.789-1.716 1.758-1.721h3.266c.998 0 1.81-.793 1.81-1.766 0-.98-.812-1.772-1.81-1.766z"/>
        <g>
            <path
                d="M6.07 25.401c-1.524-1.526-2.398-3.612-2.398-5.714l-.006-8.656v-.016c-.035-.962-.851-1.745-1.83-1.745-.996 0-1.807.783-1.807 1.745l.006 8.655c0 3.053 1.216 5.938 3.417 8.13l1.564 1.549a1.872 1.872 0 0 0 2.542.061l.012-.011c.353-.324.556-.777.561-1.247a1.62 1.62 0 0 0-.503-1.208L6.07 25.401zM1.987 5.915c1.077 0 1.957-.85 1.957-1.89s-.88-1.89-1.957-1.89c-1.078 0-1.958.85-1.958 1.89s.88 1.89 1.958 1.89z"/>
        </g>
        <path fill-rule="nonzero"
              d="M129.183 18.923h9.967v11.744h-1.045v-5.402c-1.29 3.206-4.426 5.541-8.852 5.541-6.203 0-10.524-4.426-10.524-11.953 0-7.283 4.39-12.023 10.873-12.023 5.784 0 8.92 3.38 9.409 7.946h-1.255c-.453-3.834-3.101-6.796-8.154-6.796-5.716 0-9.584 4.252-9.584 10.873 0 6.865 3.834 10.803 9.2 10.803 5.262 0 8.782-3.659 8.817-7.84v-1.743h-8.852v-1.15zm22.13-5.262c4.704 0 7.84 3.415 7.84 8.572 0 5.123-3.136 8.608-7.84 8.608-4.705 0-7.877-3.415-7.877-8.503 0-5.193 3.172-8.677 7.876-8.677zm0 1.15c-3.939 0-6.622 2.997-6.622 7.457s2.683 7.458 6.621 7.458c3.938 0 6.586-2.997 6.586-7.458 0-4.46-2.648-7.457-6.586-7.457zm23.835-.976h1.29l-6.656 16.832h-1.568l-6.691-16.832h1.394l5.854 14.95c.105.209.174.418.244.662h.07c.035-.244.104-.453.174-.662l5.89-14.95z"/>
    </g>
</svg>
